<mxfile host="app.diagrams.net" modified="2024-01-26T04:41:26.849Z" agent="Mozilla/5.0 (Windows NT 10.0; Win64; x64) AppleWebKit/537.36 (KHTML, like Gecko) Chrome/120.0.0.0 Safari/537.36" etag="5K5i6tGeTbgDpNFWHW4Z" version="23.0.1" type="github">
  <diagram name="Trang-1" id="1H3SK76nEYsDpkZw7GPR">
    <mxGraphModel dx="2550" dy="870" grid="1" gridSize="10" guides="1" tooltips="1" connect="1" arrows="1" fold="1" page="0" pageScale="1" pageWidth="827" pageHeight="1169" math="0" shadow="0">
      <root>
        <mxCell id="0" />
        <mxCell id="1" parent="0" />
        <mxCell id="MtDzwmHEhNQLWTvaQFK7-7" style="edgeStyle=none;curved=1;rounded=0;orthogonalLoop=1;jettySize=auto;html=1;exitX=0.5;exitY=1;exitDx=0;exitDy=0;entryX=0.5;entryY=0;entryDx=0;entryDy=0;fontSize=12;startSize=8;endSize=8;" parent="1" source="MtDzwmHEhNQLWTvaQFK7-3" target="MtDzwmHEhNQLWTvaQFK7-4" edge="1">
          <mxGeometry relative="1" as="geometry" />
        </mxCell>
        <mxCell id="MtDzwmHEhNQLWTvaQFK7-8" value="chân không" style="edgeLabel;html=1;align=center;verticalAlign=middle;resizable=0;points=[];fontSize=16;" parent="MtDzwmHEhNQLWTvaQFK7-7" vertex="1" connectable="0">
          <mxGeometry x="0.05" y="-3" relative="1" as="geometry">
            <mxPoint x="1" as="offset" />
          </mxGeometry>
        </mxCell>
        <mxCell id="MtDzwmHEhNQLWTvaQFK7-10" style="edgeStyle=none;curved=1;rounded=0;orthogonalLoop=1;jettySize=auto;html=1;exitX=0.5;exitY=1;exitDx=0;exitDy=0;entryX=1;entryY=0.5;entryDx=0;entryDy=0;fontSize=12;startSize=8;endSize=8;" parent="1" source="MtDzwmHEhNQLWTvaQFK7-3" target="MtDzwmHEhNQLWTvaQFK7-12" edge="1">
          <mxGeometry relative="1" as="geometry">
            <mxPoint x="140" y="380" as="targetPoint" />
            <Array as="points">
              <mxPoint x="100" y="400" />
            </Array>
          </mxGeometry>
        </mxCell>
        <mxCell id="MtDzwmHEhNQLWTvaQFK7-11" value="ko" style="edgeLabel;html=1;align=center;verticalAlign=middle;resizable=0;points=[];fontSize=16;" parent="MtDzwmHEhNQLWTvaQFK7-10" vertex="1" connectable="0">
          <mxGeometry x="0.0069" y="4" relative="1" as="geometry">
            <mxPoint as="offset" />
          </mxGeometry>
        </mxCell>
        <mxCell id="MtDzwmHEhNQLWTvaQFK7-3" value="SS in" style="whiteSpace=wrap;html=1;fontSize=16;" parent="1" vertex="1">
          <mxGeometry y="260" width="100" height="40" as="geometry" />
        </mxCell>
        <mxCell id="MtDzwmHEhNQLWTvaQFK7-13" style="edgeStyle=none;curved=1;rounded=0;orthogonalLoop=1;jettySize=auto;html=1;exitX=0.5;exitY=1;exitDx=0;exitDy=0;fontSize=12;startSize=8;endSize=8;" parent="1" source="MtDzwmHEhNQLWTvaQFK7-4" target="MtDzwmHEhNQLWTvaQFK7-12" edge="1">
          <mxGeometry relative="1" as="geometry" />
        </mxCell>
        <mxCell id="MtDzwmHEhNQLWTvaQFK7-14" value="dl d210" style="edgeLabel;html=1;align=center;verticalAlign=middle;resizable=0;points=[];fontSize=16;" parent="MtDzwmHEhNQLWTvaQFK7-13" vertex="1" connectable="0">
          <mxGeometry x="-0.26" y="4" relative="1" as="geometry">
            <mxPoint as="offset" />
          </mxGeometry>
        </mxCell>
        <mxCell id="MtDzwmHEhNQLWTvaQFK7-4" value="van hút" style="whiteSpace=wrap;html=1;fontSize=16;" parent="1" vertex="1">
          <mxGeometry x="-130" y="380" width="120" height="60" as="geometry" />
        </mxCell>
        <mxCell id="MtDzwmHEhNQLWTvaQFK7-19" style="edgeStyle=none;curved=1;rounded=0;orthogonalLoop=1;jettySize=auto;html=1;exitX=0.5;exitY=1;exitDx=0;exitDy=0;entryX=0.5;entryY=0;entryDx=0;entryDy=0;fontSize=12;startSize=8;endSize=8;" parent="1" source="MtDzwmHEhNQLWTvaQFK7-12" target="MtDzwmHEhNQLWTvaQFK7-18" edge="1">
          <mxGeometry relative="1" as="geometry" />
        </mxCell>
        <mxCell id="MtDzwmHEhNQLWTvaQFK7-20" value="cb x2" style="edgeLabel;html=1;align=center;verticalAlign=middle;resizable=0;points=[];fontSize=16;" parent="MtDzwmHEhNQLWTvaQFK7-19" vertex="1" connectable="0">
          <mxGeometry x="-0.17" y="-2" relative="1" as="geometry">
            <mxPoint y="-1" as="offset" />
          </mxGeometry>
        </mxCell>
        <mxCell id="MtDzwmHEhNQLWTvaQFK7-12" value="XLN, van hút" style="whiteSpace=wrap;html=1;fontSize=16;" parent="1" vertex="1">
          <mxGeometry x="-130" y="490" width="120" height="60" as="geometry" />
        </mxCell>
        <mxCell id="MtDzwmHEhNQLWTvaQFK7-15" value="m140" style="text;html=1;align=center;verticalAlign=middle;resizable=0;points=[];autosize=1;strokeColor=none;fillColor=none;fontSize=16;" parent="1" vertex="1">
          <mxGeometry x="-200" y="388" width="60" height="30" as="geometry" />
        </mxCell>
        <mxCell id="MtDzwmHEhNQLWTvaQFK7-16" value="m153" style="text;html=1;align=center;verticalAlign=middle;resizable=0;points=[];autosize=1;strokeColor=none;fillColor=none;fontSize=16;" parent="1" vertex="1">
          <mxGeometry x="-200" y="505" width="60" height="30" as="geometry" />
        </mxCell>
        <mxCell id="MtDzwmHEhNQLWTvaQFK7-21" value="" style="edgeStyle=none;curved=1;rounded=0;orthogonalLoop=1;jettySize=auto;html=1;fontSize=12;startSize=8;endSize=8;" parent="1" source="MtDzwmHEhNQLWTvaQFK7-18" target="MtDzwmHEhNQLWTvaQFK7-12" edge="1">
          <mxGeometry relative="1" as="geometry" />
        </mxCell>
        <mxCell id="MtDzwmHEhNQLWTvaQFK7-25" style="edgeStyle=none;curved=1;rounded=0;orthogonalLoop=1;jettySize=auto;html=1;exitX=0.5;exitY=1;exitDx=0;exitDy=0;entryX=0.5;entryY=0;entryDx=0;entryDy=0;fontSize=12;startSize=8;endSize=8;" parent="1" source="MtDzwmHEhNQLWTvaQFK7-18" target="MtDzwmHEhNQLWTvaQFK7-24" edge="1">
          <mxGeometry relative="1" as="geometry" />
        </mxCell>
        <mxCell id="MtDzwmHEhNQLWTvaQFK7-26" value="dl d226" style="edgeLabel;html=1;align=center;verticalAlign=middle;resizable=0;points=[];fontSize=16;" parent="MtDzwmHEhNQLWTvaQFK7-25" vertex="1" connectable="0">
          <mxGeometry x="-0.3062" y="-1" relative="1" as="geometry">
            <mxPoint as="offset" />
          </mxGeometry>
        </mxCell>
        <mxCell id="MtDzwmHEhNQLWTvaQFK7-18" value="XLN, van hút" style="whiteSpace=wrap;html=1;fontSize=16;" parent="1" vertex="1">
          <mxGeometry x="-130" y="600" width="120" height="60" as="geometry" />
        </mxCell>
        <mxCell id="MtDzwmHEhNQLWTvaQFK7-22" value="m152" style="text;html=1;align=center;verticalAlign=middle;resizable=0;points=[];autosize=1;strokeColor=none;fillColor=none;fontSize=16;" parent="1" vertex="1">
          <mxGeometry x="-200" y="615" width="60" height="30" as="geometry" />
        </mxCell>
        <mxCell id="MtDzwmHEhNQLWTvaQFK7-29" style="edgeStyle=none;curved=1;rounded=0;orthogonalLoop=1;jettySize=auto;html=1;exitX=0.5;exitY=1;exitDx=0;exitDy=0;entryX=0.5;entryY=0;entryDx=0;entryDy=0;fontSize=12;startSize=8;endSize=8;" parent="1" source="MtDzwmHEhNQLWTvaQFK7-24" target="MtDzwmHEhNQLWTvaQFK7-28" edge="1">
          <mxGeometry relative="1" as="geometry" />
        </mxCell>
        <mxCell id="MtDzwmHEhNQLWTvaQFK7-30" value="x2" style="edgeLabel;html=1;align=center;verticalAlign=middle;resizable=0;points=[];fontSize=16;" parent="MtDzwmHEhNQLWTvaQFK7-29" vertex="1" connectable="0">
          <mxGeometry x="-0.29" y="-4" relative="1" as="geometry">
            <mxPoint as="offset" />
          </mxGeometry>
        </mxCell>
        <mxCell id="MtDzwmHEhNQLWTvaQFK7-31" value="m8029" style="edgeLabel;html=1;align=center;verticalAlign=middle;resizable=0;points=[];fontSize=16;" parent="MtDzwmHEhNQLWTvaQFK7-29" vertex="1" connectable="0">
          <mxGeometry x="0.2556" y="3" relative="1" as="geometry">
            <mxPoint as="offset" />
          </mxGeometry>
        </mxCell>
        <mxCell id="MtDzwmHEhNQLWTvaQFK7-37" style="edgeStyle=none;curved=1;rounded=0;orthogonalLoop=1;jettySize=auto;html=1;exitX=0.5;exitY=1;exitDx=0;exitDy=0;entryX=0.5;entryY=0;entryDx=0;entryDy=0;fontSize=12;startSize=8;endSize=8;" parent="1" source="MtDzwmHEhNQLWTvaQFK7-24" target="MtDzwmHEhNQLWTvaQFK7-32" edge="1">
          <mxGeometry relative="1" as="geometry" />
        </mxCell>
        <mxCell id="MtDzwmHEhNQLWTvaQFK7-38" value="x2, m8029" style="edgeLabel;html=1;align=center;verticalAlign=middle;resizable=0;points=[];fontSize=16;" parent="MtDzwmHEhNQLWTvaQFK7-37" vertex="1" connectable="0">
          <mxGeometry x="-0.5333" y="1" relative="1" as="geometry">
            <mxPoint x="-1" y="29" as="offset" />
          </mxGeometry>
        </mxCell>
        <mxCell id="MtDzwmHEhNQLWTvaQFK7-24" value="XLN, van hút" style="whiteSpace=wrap;html=1;fontSize=16;" parent="1" vertex="1">
          <mxGeometry x="-130" y="740" width="120" height="60" as="geometry" />
        </mxCell>
        <mxCell id="MtDzwmHEhNQLWTvaQFK7-27" value="m141" style="text;html=1;align=center;verticalAlign=middle;resizable=0;points=[];autosize=1;strokeColor=none;fillColor=none;fontSize=16;" parent="1" vertex="1">
          <mxGeometry x="-200" y="755" width="60" height="30" as="geometry" />
        </mxCell>
        <mxCell id="MtDzwmHEhNQLWTvaQFK7-28" value="counter" style="whiteSpace=wrap;html=1;fontSize=16;" parent="1" vertex="1">
          <mxGeometry x="-260" y="890" width="120" height="60" as="geometry" />
        </mxCell>
        <mxCell id="MtDzwmHEhNQLWTvaQFK7-42" style="edgeStyle=none;curved=1;rounded=0;orthogonalLoop=1;jettySize=auto;html=1;exitX=0.5;exitY=1;exitDx=0;exitDy=0;fontSize=12;startSize=8;endSize=8;entryX=0.5;entryY=0;entryDx=0;entryDy=0;" parent="1" source="MtDzwmHEhNQLWTvaQFK7-32" target="MtDzwmHEhNQLWTvaQFK7-39" edge="1">
          <mxGeometry relative="1" as="geometry">
            <mxPoint x="-70.5" y="990" as="targetPoint" />
          </mxGeometry>
        </mxCell>
        <mxCell id="MtDzwmHEhNQLWTvaQFK7-46" value="n lần trước" style="edgeLabel;html=1;align=center;verticalAlign=middle;resizable=0;points=[];fontSize=16;" parent="MtDzwmHEhNQLWTvaQFK7-42" vertex="1" connectable="0">
          <mxGeometry x="0.1161" y="-5" relative="1" as="geometry">
            <mxPoint x="-15" y="10" as="offset" />
          </mxGeometry>
        </mxCell>
        <mxCell id="MtDzwmHEhNQLWTvaQFK7-44" style="edgeStyle=none;curved=1;rounded=0;orthogonalLoop=1;jettySize=auto;html=1;exitX=0.5;exitY=1;exitDx=0;exitDy=0;entryX=0.5;entryY=0;entryDx=0;entryDy=0;fontSize=12;startSize=8;endSize=8;" parent="1" source="MtDzwmHEhNQLWTvaQFK7-32" target="MtDzwmHEhNQLWTvaQFK7-43" edge="1">
          <mxGeometry relative="1" as="geometry" />
        </mxCell>
        <mxCell id="MtDzwmHEhNQLWTvaQFK7-45" value="chân 0" style="edgeLabel;html=1;align=center;verticalAlign=middle;resizable=0;points=[];fontSize=16;" parent="MtDzwmHEhNQLWTvaQFK7-44" vertex="1" connectable="0">
          <mxGeometry x="0.2277" y="3" relative="1" as="geometry">
            <mxPoint as="offset" />
          </mxGeometry>
        </mxCell>
        <mxCell id="MtDzwmHEhNQLWTvaQFK7-32" value="XLN" style="whiteSpace=wrap;html=1;fontSize=16;" parent="1" vertex="1">
          <mxGeometry x="-130" y="890" width="120" height="60" as="geometry" />
        </mxCell>
        <mxCell id="MtDzwmHEhNQLWTvaQFK7-33" value="m142" style="text;html=1;align=center;verticalAlign=middle;resizable=0;points=[];autosize=1;strokeColor=none;fillColor=none;fontSize=16;" parent="1" vertex="1">
          <mxGeometry x="-50" y="860" width="60" height="30" as="geometry" />
        </mxCell>
        <mxCell id="MtDzwmHEhNQLWTvaQFK7-39" value="" style="whiteSpace=wrap;html=1;fontSize=16;" parent="1" vertex="1">
          <mxGeometry x="-260" y="1030" width="120" height="60" as="geometry" />
        </mxCell>
        <mxCell id="MtDzwmHEhNQLWTvaQFK7-43" value="" style="whiteSpace=wrap;html=1;fontSize=16;" parent="1" vertex="1">
          <mxGeometry x="-120" y="1030" width="120" height="60" as="geometry" />
        </mxCell>
        <mxCell id="MtDzwmHEhNQLWTvaQFK7-47" value="m147" style="text;html=1;align=center;verticalAlign=middle;resizable=0;points=[];autosize=1;strokeColor=none;fillColor=none;fontSize=16;" parent="1" vertex="1">
          <mxGeometry x="-340" y="1038" width="60" height="30" as="geometry" />
        </mxCell>
      </root>
    </mxGraphModel>
  </diagram>
</mxfile>
